<svg xmlns="http://www.w3.org/2000/svg" viewBox="0 0 48 48" fill="none" stroke="currentColor" stroke-width="2.5" stroke-linecap="round" stroke-linejoin="round">
  <!-- Main gear -->
  <path d="M24 30a6 6 0 1 0 0-12 6 6 0 0 0 0 12z"/>
  <path d="M21.2 6.4l-.4 3.6a2 2 0 0 1-1.2 1.6l-1.4.7a2 2 0 0 1-2-.1l-3-2.1-3.6 3.6 2.1 3a2 2 0 0 1 .1 2l-.7 1.4a2 2 0 0 1-1.6 1.2l-3.6.4v5.2l3.6.4a2 2 0 0 1 1.6 1.2l.7 1.4a2 2 0 0 1-.1 2l-2.1 3 3.6 3.6 3-2.1a2 2 0 0 1 2-.1l1.4.7a2 2 0 0 1 1.2 1.6l.4 3.6h5.2l.4-3.6a2 2 0 0 1 1.2-1.6l1.4-.7a2 2 0 0 1 2 .1l3 2.1 3.6-3.6-2.1-3a2 2 0 0 1-.1-2l.7-1.4a2 2 0 0 1 1.6-1.2l3.6-.4v-5.2l-3.6-.4a2 2 0 0 1-1.6-1.2l-.7-1.4a2 2 0 0 1 .1-2l2.1-3-3.6-3.6-3 2.1a2 2 0 0 1-2 .1l-1.4-.7a2 2 0 0 1-1.2-1.6l-.4-3.6z"/>
</svg>